<svg width="144" height="80" viewBox="0 0 144 80" fill="none" xmlns="http://www.w3.org/2000/svg"><rect width="144" height="80" fill="#1D1E1F"></rect><g clip-path="url(#clip0)"><path fill-rule="evenodd" clip-rule="evenodd" d="M20.4063 67.8484H137.711V67.7154H20.4063V67.8484Z" stroke="white" stroke-opacity="0.45" stroke-width="0.128989" stroke-linecap="square"></path><path d="M45.3848 69.512V70.577H44.2734V70.7937H45.3848V72.3385H45.6139V71.3231C45.8801 71.45 46.2052 71.6326 46.5952 71.871L46.7222 71.6822C46.3476 71.4624 45.9792 71.2704 45.6139 71.1064V70.7937H47.0255V70.577H45.6139V70.1126H46.62V69.8959H45.6139V69.512H45.3848ZM48.8882 70.3169V70.6946H48.1607C48.3092 70.5182 48.4393 70.3262 48.5507 70.1219H50.1605V69.9052H48.6591C48.7148 69.7845 48.7643 69.6545 48.8077 69.5182L48.5817 69.4904C48.5352 69.6328 48.4795 69.769 48.4114 69.9052H47.4672V70.1219H48.2938C48.0678 70.4996 47.7582 70.8308 47.365 71.1218L47.5074 71.3076C47.6901 71.1683 47.8573 71.0197 48.0121 70.8618V72.0475H48.2257V70.902H48.8882V72.3416H49.1018V70.902H49.7612V71.6884C49.7612 71.7781 49.7116 71.8246 49.6126 71.8246L49.337 71.8184L49.3928 72.0258H49.6838C49.8757 72.0258 49.9748 71.9267 49.9748 71.7348V70.6946H49.1018V70.3169H48.8882ZM50.7384 69.738V69.9485H51.7909C51.6547 70.1838 51.3142 70.3417 50.7755 70.4222L50.8963 70.6203C51.3018 70.5398 51.6052 70.4098 51.8064 70.2303C52.2119 70.3262 52.6082 70.4532 52.9983 70.6141L53.119 70.4284C52.7599 70.2953 52.3667 70.1807 51.9395 70.0817C51.9674 70.0414 51.9922 69.9981 52.0169 69.9485H53.1654V69.738H52.0788C52.085 69.6947 52.0881 69.6173 52.0881 69.512H51.8621C51.8621 69.608 51.859 69.6823 51.859 69.738H50.7384ZM50.5805 70.7008V70.9175H52.6794V71.9948C52.6794 72.0877 52.6206 72.1372 52.506 72.1372C52.4132 72.1372 52.3141 72.131 52.215 72.1249L52.2615 72.3354H52.5803C52.794 72.3354 52.9023 72.2394 52.9023 72.0475V70.9175H53.3109V70.7008H50.5805ZM50.9675 71.1745V71.9546H52.1624V71.1745H50.9675ZM51.9519 71.7596H51.178V71.3664H51.9519V71.7596ZM56.3004 71.1807H55.2757C55.381 71.0537 55.4676 70.9082 55.5419 70.7442H56.5047V70.5398H55.6224C55.6534 70.4501 55.6782 70.3541 55.7029 70.2519L55.4862 70.2272C55.4645 70.3355 55.4367 70.4408 55.3995 70.5398H54.638V70.7442H55.3098C55.1612 71.0321 54.9383 71.2611 54.6442 71.4314L54.7463 71.6172C54.8702 71.546 54.9878 71.4624 55.0931 71.3695V72.3199H55.3005V72.1341H56.0961V72.3199H56.3004V71.1807ZM55.3005 71.936V71.3788H56.0961V71.936H55.3005ZM54.6689 69.7969V70.0012H55.0776V70.3169H55.2912V70.0012H55.867V70.3169H56.0837V70.0012H56.4707V69.7969H56.0837V69.4966H55.867V69.7969H55.2912V69.4966H55.0776V69.7969H54.6689ZM54.0529 69.5399L53.8981 69.6916C54.1179 69.8557 54.2913 70.0105 54.4182 70.1591L54.5699 70.0043C54.4275 69.8495 54.2572 69.6947 54.0529 69.5399ZM53.6752 70.4501V70.6637H54.1117V71.902C54.1117 71.9484 54.09 71.9917 54.0498 72.032L54.1334 72.2301C54.3098 72.1001 54.477 71.9484 54.6349 71.7812L54.573 71.546C54.4894 71.6388 54.4089 71.7224 54.3284 71.7998V70.4501H53.6752Z" fill="white" fill-opacity="0.45"></path><path d="M67.8011 70.0259V70.1188H69.0022V70.0197C69.2035 70.1126 69.4356 70.1962 69.7019 70.2705L69.8133 70.0971C69.1973 69.9238 68.7608 69.7226 68.5069 69.4966H68.3274C68.0178 69.7411 67.5813 69.9424 67.0117 70.0971L67.1231 70.2705C67.3677 70.2024 67.5937 70.1219 67.8011 70.0259ZM68.8753 69.9578H67.9404C68.1138 69.8712 68.2716 69.769 68.4171 69.6575C68.541 69.7628 68.6927 69.865 68.8753 69.9578ZM67.4915 70.2891V70.8061H69.3118V70.2891H67.4915ZM69.1013 70.6482H67.702V70.4501H69.1013V70.6482ZM69.4016 70.8958C68.8444 70.967 68.1447 71.0042 67.3027 71.0073L67.3615 71.1745C67.7082 71.1745 68.0333 71.1683 68.3305 71.1559V71.354H67.3089V71.5181H68.3305V71.7193H67.0612V71.902H68.3305V72.032C68.3305 72.1156 68.2871 72.1589 68.2004 72.1589C68.0921 72.1589 67.9775 72.1527 67.8537 72.1434L67.8971 72.3354H68.2685C68.4543 72.3354 68.5503 72.2487 68.5503 72.0784V71.902H69.7545V71.7193H68.5503V71.5181H69.5347V71.354H68.5503V71.1435C68.9063 71.1249 69.2189 71.094 69.4914 71.0537L69.4016 70.8958ZM70.5212 69.509C70.4407 69.8773 70.3076 70.2148 70.1219 70.5182L70.3045 70.6327C70.4098 70.4624 70.4995 70.2736 70.58 70.0662H71.2116V69.8526H70.6543C70.6853 69.7566 70.7132 69.6575 70.7379 69.5523L70.5212 69.509ZM70.4222 70.4779V70.6791H70.6327V71.0599H70.224V71.2642H70.6327V71.9701C70.6327 72.0134 70.5986 72.0475 70.5336 72.0691L70.6234 72.2549C70.8834 72.1837 71.1125 72.0939 71.3137 71.9825L71.2735 71.7843C71.1311 71.8679 70.9887 71.9329 70.8494 71.9825V71.2642H71.2642V71.0599H70.8494V70.6791H71.1527V70.4779H70.4222ZM71.6728 70.2767H72.0443V70.416C72.0412 70.577 72.0319 70.7318 72.0165 70.8804H71.3416V71.094H71.9855C71.9576 71.2488 71.9205 71.3912 71.871 71.5181C71.7533 71.7874 71.5459 72.0041 71.2487 72.1682L71.3725 72.3601C71.6821 72.1961 71.905 71.967 72.0412 71.676C72.0877 71.5707 72.1248 71.4562 72.1558 71.3323C72.2734 71.7565 72.5056 72.097 72.8585 72.3539L72.9823 72.1558C72.6108 71.902 72.3818 71.549 72.2982 71.094H72.9204V70.8804H72.2332C72.2486 70.738 72.2579 70.5832 72.261 70.416V70.2767H72.8183V70.06H72.261V69.512H72.0443V70.06H71.7378C71.7657 69.9547 71.7936 69.8402 71.8183 69.7226L71.6109 69.6792C71.5459 70.0136 71.4407 70.3231 71.2982 70.6017L71.4933 70.7225C71.5583 70.5863 71.6171 70.4377 71.6728 70.2767Z" fill="white" fill-opacity="0.45"></path><path d="M106.121 70.06L105.942 71.0692H107.146C107.146 71.5583 107.121 71.8555 107.072 71.9546C107.028 72.0537 106.889 72.1063 106.657 72.1063C106.601 72.1063 106.502 72.097 106.36 72.0846L106.421 72.3013C106.521 72.3075 106.617 72.3106 106.706 72.3106C106.976 72.3106 107.152 72.2549 107.236 72.1434C107.316 72.0258 107.356 71.5986 107.356 70.8618H107.022L107.195 69.639H105.87V69.8495H106.948L106.802 70.8618H106.186L106.332 70.0724L106.121 70.06ZM105.836 71.4531V71.6574H106.92V71.4531H105.836ZM104.713 70.6482V70.8649H105.075V71.6543C104.936 71.6853 104.793 71.7131 104.651 71.7348L104.703 71.9484C105.078 71.8741 105.428 71.7843 105.75 71.676V71.4593C105.604 71.5088 105.456 71.5552 105.301 71.5986V70.8649H105.666V70.6482H105.301V69.9238H105.747V69.7102H104.66V69.9238H105.075V70.6482H104.713ZM107.984 69.738V69.9485H109.036C108.9 70.1838 108.56 70.3417 108.021 70.4222L108.142 70.6203C108.547 70.5398 108.851 70.4098 109.052 70.2303C109.457 70.3262 109.854 70.4532 110.244 70.6141L110.364 70.4284C110.005 70.2953 109.612 70.1807 109.185 70.0817C109.213 70.0414 109.238 69.9981 109.262 69.9485H110.411V69.738H109.324C109.33 69.6947 109.334 69.6173 109.334 69.512H109.108C109.108 69.608 109.104 69.6823 109.104 69.738H107.984ZM107.826 70.7008V70.9175H109.925V71.9948C109.925 72.0877 109.866 72.1372 109.751 72.1372C109.659 72.1372 109.56 72.131 109.46 72.1249L109.507 72.3354H109.826C110.039 72.3354 110.148 72.2394 110.148 72.0475V70.9175H110.556V70.7008H107.826ZM108.213 71.1745V71.9546H109.408V71.1745H108.213ZM109.197 71.7596H108.423V71.3664H109.197V71.7596ZM111.989 71.2364C111.76 71.549 111.404 71.8091 110.921 72.0134L111.041 72.2115C111.568 71.9546 111.945 71.6295 112.174 71.2364H112.221V72.3477H112.447V71.2364H112.503C112.722 71.5955 113.094 71.9205 113.614 72.2115L113.763 72.0258C113.264 71.7936 112.908 71.5305 112.691 71.2364H113.66V71.029H112.447V70.6699H112.221V71.029H111.01V71.2364H111.989ZM111.691 69.6049V70.029C111.691 70.382 111.472 70.5832 111.032 70.6358L111.147 70.8339C111.657 70.7503 111.914 70.4717 111.914 69.995V69.8123H112.778V70.4222C112.778 70.6203 112.877 70.7225 113.078 70.7225H113.611V70.512H113.137C113.041 70.512 112.995 70.4655 112.995 70.3727V69.6049H111.691Z" fill="white" fill-opacity="0.45"></path><path d="M87.488 71.6884C87.2341 71.7967 86.9369 71.8834 86.5964 71.9484L86.6242 72.1651C86.9462 72.1001 87.2341 72.0103 87.488 71.8989V71.6884ZM87.0979 69.5059C86.9834 69.8588 86.8471 70.1714 86.6924 70.4439C86.6676 70.4841 86.6366 70.512 86.5995 70.5244L86.6552 70.7287C86.8224 70.7039 86.9926 70.673 87.1598 70.642C86.9895 70.9268 86.8471 71.1311 86.7295 71.2488C86.7016 71.2735 86.6676 71.2952 86.6273 71.3107L86.6862 71.515C86.9617 71.4778 87.2496 71.4066 87.5468 71.3076V71.1064C87.3517 71.1745 87.1567 71.2302 86.9586 71.2704C87.1381 71.0568 87.3703 70.6977 87.6489 70.1931L87.4477 70.1188C87.3889 70.2303 87.3332 70.3355 87.2775 70.4377C87.1381 70.4655 86.9988 70.4903 86.8626 70.5089C87.0112 70.2798 87.1598 69.9733 87.3084 69.5894L87.0979 69.5059ZM87.6489 70.5708V70.7751H88.3826V71.1311C88.1288 71.4593 87.8347 71.7162 87.5065 71.9051L87.6211 72.1001C87.9121 71.9082 88.1659 71.6698 88.3826 71.3881V72.001C88.3826 72.0877 88.3455 72.1341 88.2743 72.1341C88.1907 72.1341 88.104 72.128 88.0111 72.1187L88.0576 72.3261H88.3486C88.5096 72.3261 88.59 72.2363 88.59 72.0567V71.2921C88.7975 71.645 89.042 71.9205 89.3268 72.1249L89.4445 71.9236C89.2402 71.7905 89.0606 71.6295 88.9027 71.4438C89.0575 71.3385 89.1937 71.1961 89.3145 71.0135L89.1504 70.8773C89.0451 71.0568 88.9275 71.1961 88.7913 71.3014C88.717 71.2054 88.652 71.1002 88.59 70.9887V70.7751H89.3795V70.5708H89.0235C89.0575 70.3448 89.0885 70.0662 89.1132 69.7349V69.6235H87.7944V69.8216H88.9058L88.878 70.1064H87.8625V70.2953H88.8563C88.8408 70.3943 88.8253 70.4841 88.8098 70.5708H87.6489ZM87.7511 70.9423L87.6397 71.1095C87.7697 71.1776 87.8997 71.2766 88.0297 71.4005L88.1381 71.2364C88.0204 71.1187 87.8935 71.0228 87.7511 70.9423ZM89.8242 69.7504V69.9516H90.4929V70.2241H90.7127V69.9516H91.6074V70.2241H91.8272V69.9516H92.4958V69.7504H91.8272V69.5059H91.6074V69.7504H90.7127V69.5059H90.4929V69.7504H89.8242ZM91.0687 70.1436C90.7591 70.4717 90.3164 70.7411 89.7406 70.9454L89.8614 71.1342C90.3815 70.9485 90.8149 70.6822 91.1585 70.3355C91.4433 70.6513 91.8767 70.9144 92.4587 71.128L92.5794 70.9392C91.951 70.7101 91.5083 70.447 91.2483 70.1436H91.0687ZM90.2298 71.1095V71.3231H91.047V72.0134C91.047 72.1001 91.0099 72.1465 90.9387 72.1465C90.8458 72.1465 90.7529 72.1403 90.6539 72.131L90.7003 72.3323H91.0099C91.1833 72.3323 91.2699 72.2425 91.2699 72.066V71.3231H92.0686V71.1095H91.2699V70.7503H91.047V71.1095H90.2298ZM90.6322 71.4871C90.4248 71.6853 90.1617 71.8462 89.8428 71.967L89.9388 72.1713C90.27 72.032 90.5455 71.8555 90.7684 71.6419L90.6322 71.4871ZM91.6476 71.4902L91.5362 71.6605C91.8086 71.7967 92.0779 71.9825 92.338 72.2208L92.4618 72.032C92.2172 71.8184 91.9448 71.6388 91.6476 71.4902Z" fill="white" fill-opacity="0.45"></path><path d="M126.893 71.7441C126.586 71.8586 126.23 71.9515 125.825 72.0196L125.852 72.2394C126.239 72.1682 126.586 72.0753 126.893 71.9577V71.7441ZM126.413 69.5182C126.274 69.8804 126.109 70.2024 125.924 70.481C125.893 70.5213 125.862 70.5491 125.825 70.5677L125.883 70.772C126.072 70.7472 126.261 70.7225 126.447 70.6946C126.261 71.0011 126.103 71.2178 125.973 71.3447C125.945 71.3695 125.911 71.3943 125.871 71.4128L125.933 71.6141C126.255 71.5707 126.589 71.484 126.939 71.3571V71.1528C126.698 71.2426 126.456 71.3138 126.215 71.3664C126.419 71.1311 126.676 70.7318 126.986 70.1652L126.787 70.091C126.71 70.2334 126.636 70.3665 126.568 70.4903C126.413 70.5151 126.258 70.5367 126.103 70.5522C126.28 70.3169 126.453 69.9981 126.626 69.5987L126.413 69.5182ZM127.694 69.93V71.9917H126.967V72.2084H128.629V71.9917H127.917V69.93H128.549V69.7164H127.054V69.93H127.694ZM129.037 69.7504V69.9516H129.706V70.2241H129.925V69.9516H130.82V70.2241H131.04V69.9516H131.709V69.7504H131.04V69.5059H130.82V69.7504H129.925V69.5059H129.706V69.7504H129.037ZM130.281 70.1436C129.972 70.4717 129.529 70.7411 128.953 70.9454L129.074 71.1342C129.594 70.9485 130.028 70.6822 130.371 70.3355C130.656 70.6513 131.089 70.9144 131.671 71.128L131.792 70.9392C131.164 70.7101 130.721 70.447 130.461 70.1436H130.281ZM129.443 71.1095V71.3231H130.26V72.0134C130.26 72.1001 130.223 72.1465 130.151 72.1465C130.059 72.1465 129.966 72.1403 129.867 72.131L129.913 72.3323H130.223C130.396 72.3323 130.483 72.2425 130.483 72.066V71.3231H131.281V71.1095H130.483V70.7503H130.26V71.1095H129.443ZM129.845 71.4871C129.638 71.6853 129.374 71.8462 129.056 71.967L129.152 72.1713C129.483 72.032 129.758 71.8555 129.981 71.6419L129.845 71.4871ZM130.86 71.4902L130.749 71.6605C131.021 71.7967 131.291 71.9825 131.551 72.2208L131.675 72.032C131.43 71.8184 131.158 71.6388 130.86 71.4902Z" fill="white" fill-opacity="0.45"></path><path fill-rule="evenodd" clip-rule="evenodd" d="M20.4063 4.75001H137.711V4.61703H20.4063V4.75001Z" stroke="white" stroke-opacity="0.151934" stroke-width="0.128989" stroke-linecap="square"></path><path fill-rule="evenodd" clip-rule="evenodd" d="M20.4063 16.9841H137.711V16.8511H20.4063V16.9841Z" stroke="white" stroke-opacity="0.151934" stroke-width="0.128989" stroke-linecap="square"></path><path fill-rule="evenodd" clip-rule="evenodd" d="M20.4063 29.75H137.711V29.617H20.4063V29.75Z" stroke="white" stroke-opacity="0.151934" stroke-width="0.128989" stroke-linecap="square"></path><path fill-rule="evenodd" clip-rule="evenodd" d="M20.4063 42.25H137.711V42.117H20.4063V42.25Z" stroke="white" stroke-opacity="0.151934" stroke-width="0.128989" stroke-linecap="square"></path><path fill-rule="evenodd" clip-rule="evenodd" d="M20.4063 55.0159H137.711V54.883H20.4063V55.0159Z" stroke="white" stroke-opacity="0.151934" stroke-width="0.128989" stroke-linecap="square"></path><path d="M27.9413 69.8154V70.0197H29.0774V70.3138H28.1147V70.512H29.0774V70.8123H27.8392V71.0166H30.5448V70.8123H29.3065V70.512H30.2786V70.3138H29.3065V70.0197H30.4427V69.8154H29.7554C29.808 69.7195 29.8483 69.6204 29.8792 69.5151L29.6409 69.4842C29.6161 69.5956 29.5759 69.7071 29.5232 69.8154H28.8762C28.8298 69.6947 28.7834 69.5863 28.7338 69.4904L28.4985 69.5275C28.5543 69.6142 28.6038 69.7102 28.6471 69.8154H27.9413ZM29.0991 71.0971C29.0867 71.1837 29.0651 71.2673 29.0372 71.3478H27.9104V71.5583H28.935C28.8824 71.6419 28.8174 71.7162 28.7369 71.7812C28.5388 71.9391 28.2168 72.0598 27.7679 72.1434L27.8608 72.3601C28.3654 72.2549 28.7183 72.1125 28.9196 71.9298C29.0248 71.8308 29.1146 71.7193 29.1827 71.5893C29.387 71.9608 29.8297 72.2146 30.5108 72.3508L30.6284 72.1403C30.0186 72.0382 29.6068 71.8431 29.3932 71.5583H30.4767V71.3478H29.2787C29.3003 71.2797 29.3158 71.2023 29.3282 71.1218L29.0991 71.0971ZM30.9927 70.0569V70.2736H32.5189C32.5437 70.6637 32.5901 71.0042 32.6613 71.2983C32.847 71.9732 33.0761 72.3199 33.3516 72.3323C33.5095 72.3292 33.6364 72.1032 33.7293 71.6574L33.5281 71.5521C33.4631 71.8989 33.3981 72.0753 33.3362 72.0846C33.234 72.0846 33.1164 71.9112 32.9863 71.5707C32.8656 71.224 32.7851 70.7937 32.748 70.2736H33.6922V70.0569H32.7356C32.7263 69.8835 32.7232 69.7009 32.7232 69.509H32.4941C32.4941 69.6978 32.4972 69.8804 32.5065 70.0569H30.9927ZM31.0391 70.7875V70.998H31.584V71.8431C31.3858 71.8741 31.1815 71.9051 30.9772 71.9298L31.0298 72.1403C31.5437 72.066 32.0267 71.9763 32.4724 71.8679V71.6512C32.2557 71.7069 32.0359 71.7596 31.8069 71.8029V70.998H32.3517V70.7875H31.0391ZM33.1907 69.5244L33.0049 69.6142C33.1102 69.7349 33.2061 69.8712 33.2959 70.0259L33.4817 69.9331C33.3888 69.7845 33.2928 69.6483 33.1907 69.5244Z" fill="white" fill-opacity="0.45"></path></g><path fill-rule="evenodd" clip-rule="evenodd" d="M35.5508 42.0505L35.5508 67.6489H23.7433L23.7433 42.0505H35.5508Z" fill="#5B8FF9"></path><path fill-rule="evenodd" clip-rule="evenodd" d="M134.374 29.6169L134.374 67.6489H122.567V29.6169L134.374 29.6169Z" fill="#5B8FF9"></path><path fill-rule="evenodd" clip-rule="evenodd" d="M55.3155 46.1064V67.649H43.508V46.1064L55.3155 46.1064Z" fill="#5B8FF9"></path><path fill-rule="evenodd" clip-rule="evenodd" d="M75.0802 36V67.6489H63.2727L63.2727 36L75.0802 36Z" fill="#5B8FF9"></path><path fill-rule="evenodd" clip-rule="evenodd" d="M94.845 11.2659L94.845 67.6489H83.0375L83.0375 11.2659L94.845 11.2659Z" fill="#5B8FF9"></path><path fill-rule="evenodd" clip-rule="evenodd" d="M114.61 39.9894L114.61 67.649H102.802V39.9894H114.61Z" fill="#5B8FF9"></path><path d="M6.71929 39.1571L6.75953 39.3893C6.8555 39.3336 6.96076 39.2809 7.0784 39.2376V40.3706H7.292V39.8041L7.76256 39.6741V40.3087H8.43433C8.86464 40.3149 9.20208 40.4109 9.44354 40.5904L9.59524 40.4202C9.30424 40.2066 8.91727 40.0951 8.43433 40.0827H7.97616V37.86H7.76256V38.6153C7.61396 38.5503 7.45608 38.5008 7.292 38.4637V37.925H7.0784V39.0116C6.94528 39.058 6.82454 39.1076 6.71929 39.1571ZM7.76256 39.4543L7.292 39.5843V38.6773C7.45608 38.7082 7.61396 38.7608 7.76256 38.8289V39.4543ZM6.88955 36.9736H7.90186V35.2678H6.88955V36.9736ZM7.69135 35.4907V36.7507H7.10007V35.4907H7.69135ZM8.20834 36.2956V37.3853H9.5519V37.1655H9.39401V36.5123H9.5519V36.2956H8.20834ZM9.1835 37.1655H8.42195V36.5123H9.1835V37.1655ZM8.20834 34.8561V35.9767H9.5519V35.7569H9.39401V35.079H9.5519V34.8561H8.20834ZM9.1835 35.7569H8.42195V35.079H9.1835V35.7569ZM6.76882 32.5952H7.62634V33.1833H9.58904V32.9604H8.90488V32.0162H9.22994C9.32591 32.0162 9.37544 32.0565 9.37544 32.1339L9.36615 32.4311L9.57976 32.3723V32.0627C9.57976 31.8831 9.4776 31.7934 9.27947 31.7934H7.62634V32.3754H6.76882V32.5952ZM8.37242 32.9604V32.0162H8.71295V32.9604H8.37242ZM8.18048 32.0162V32.9604H7.83685V32.0162H8.18048ZM6.88646 33.075L6.97624 33.2638C7.12793 33.1586 7.30129 33.0626 7.49632 32.9728L7.40654 32.7933C7.2177 32.8831 7.04434 32.9759 6.88646 33.075ZM6.8586 31.8986C7.03815 31.9729 7.2177 32.0689 7.40345 32.1927L7.49632 32.0101C7.31677 31.8893 7.13412 31.7903 6.94528 31.7129L6.8586 31.8986ZM6.76573 34.0873C7.13721 34.174 7.47775 34.3133 7.78732 34.5052L7.90186 34.3226C7.7285 34.2111 7.53347 34.1152 7.31986 34.0316V33.3908H7.10935V33.9573C7.01338 33.9263 6.91432 33.8985 6.80907 33.8706L6.76573 34.0873ZM7.73469 34.1802H7.93592V33.982H8.32598V34.4093H8.5334V33.982H9.23923C9.27947 33.982 9.31043 34.013 9.3321 34.0749L9.52403 33.982C9.45593 33.7251 9.36615 33.4991 9.2578 33.3041L9.05967 33.3412C9.14326 33.4836 9.21136 33.626 9.2609 33.7653H8.5334V33.3381H8.32598V33.7653H7.93592V33.4434H7.73469V34.1802ZM8.05665 31.1051H8.84607V30.1454H9.01943V31.1825H9.16802V30.1454H9.35067V31.4146H9.52403V28.647H9.35067V29.9225H9.16802V28.873H9.01943V29.9225H8.84607V28.9504H8.05665V31.1051ZM8.70676 29.164V29.9225H8.51792V29.164H8.70676ZM8.70676 30.1454V30.8915H8.51792V30.1454H8.70676ZM8.3879 30.8915H8.19596V30.1454H8.3879V30.8915ZM8.19596 29.9225V29.164H8.3879V29.9225H8.19596ZM6.80907 31.037H7.57371V29.0154H6.80907V31.037ZM7.4406 29.2321V30.8203H7.25795V29.2321H7.4406ZM7.12483 30.8203H6.94528V29.2321H7.12483V30.8203ZM7.73469 31.4177H7.90186V28.6439H7.73469V31.4177Z" fill="white" fill-opacity="0.65"></path><defs><clipPath id="clip0"><rect width="125.262" height="70.2128" fill="white" transform="translate(12.4492 3.02136)"></rect></clipPath></defs></svg>