<svg width="144" height="80" viewBox="0 0 144 80" fill="none" xmlns="http://www.w3.org/2000/svg"><rect width="144" height="80" fill="#1D1E1F"></rect><path d="M9 60.7639H134" stroke="white" stroke-opacity="0.151934" stroke-width="0.132991" stroke-linecap="square"></path><path d="M9 46.7414H134" stroke="white" stroke-opacity="0.151934" stroke-width="0.132991" stroke-linecap="square"></path><path d="M9 32.5842H134" stroke="white" stroke-opacity="0.151934" stroke-width="0.132991" stroke-linecap="square"></path><path d="M9 18.427H134" stroke="white" stroke-opacity="0.151934" stroke-width="0.132991" stroke-linecap="square"></path><path d="M9 4.38776L133.999 4" stroke="white" stroke-opacity="0.151934" stroke-width="0.132991" stroke-linecap="square"></path><path d="M9 75.0559H134" stroke="white" stroke-opacity="0.45" stroke-width="0.132991" stroke-linecap="square"></path><path d="M14.1866 76V74.9211" stroke="white" stroke-opacity="0.45" stroke-width="0.132991" stroke-linecap="square"></path><path d="M46.8989 76V74.9211" stroke="white" stroke-opacity="0.45" stroke-width="0.132991" stroke-linecap="square"></path><path d="M30.6755 76V74.9211" stroke="white" stroke-opacity="0.45" stroke-width="0.132991" stroke-linecap="square"></path><path d="M79.8777 76V74.9211" stroke="white" stroke-opacity="0.45" stroke-width="0.132991" stroke-linecap="square"></path><path d="M63.3883 76V74.9211" stroke="white" stroke-opacity="0.45" stroke-width="0.132991" stroke-linecap="square"></path><path d="M96.3671 76V74.9211" stroke="white" stroke-opacity="0.45" stroke-width="0.132991" stroke-linecap="square"></path><path d="M112.59 76V74.9211" stroke="white" stroke-opacity="0.45" stroke-width="0.132991" stroke-linecap="square"></path><path d="M129.08 76V74.9211" stroke="white" stroke-opacity="0.45" stroke-width="0.132991" stroke-linecap="square"></path><path d="M13.8874 48.8989L17.777 49.8427L22.9941 51.3472L30.277 46.8764L38.4718 50.6517L46.7664 52.5393L56.4364 45.2585H63.4677L79.7451 37.4383L88.7638 41.2135L96.3155 36.09L112.325 34.6281L123.106 13.0366L128.947 9.93274" stroke="#5B8FF9" stroke-linecap="round" stroke-linejoin="round"></path><ellipse cx="13.8874" cy="48.7641" rx="0.797944" ry="0.80918" fill="#5B8FF9"></ellipse><path d="M13.8874 49.7062C14.4032 49.7062 14.8183 49.2827 14.8183 48.7641C14.8183 48.2455 14.4032 47.8219 13.8874 47.8219C13.3715 47.8219 12.9564 48.2455 12.9564 48.7641C12.9564 49.2827 13.3715 49.7062 13.8874 49.7062Z" stroke="#141414" stroke-opacity="0.85" stroke-width="0.265981"></path><ellipse cx="30.2767" cy="46.8764" rx="0.797944" ry="0.80918" fill="#5B8FF9"></ellipse><path d="M30.2767 47.8186C30.7926 47.8186 31.2076 47.395 31.2076 46.8764C31.2076 46.3579 30.7926 45.9343 30.2767 45.9343C29.7608 45.9343 29.3458 46.3579 29.3458 46.8764C29.3458 47.395 29.7608 47.8186 30.2767 47.8186Z" stroke="#141414" stroke-opacity="0.85" stroke-width="0.265981"></path><ellipse cx="46.766" cy="52.5394" rx="0.797944" ry="0.80918" fill="#5B8FF9"></ellipse><path d="M46.766 53.4816C47.2819 53.4816 47.697 53.058 47.697 52.5394C47.697 52.0208 47.2819 51.5972 46.766 51.5972C46.2501 51.5972 45.8351 52.0208 45.8351 52.5394C45.8351 53.058 46.2501 53.4816 46.766 53.4816Z" stroke="#141414" stroke-opacity="0.85" stroke-width="0.265981"></path><ellipse cx="63.2554" cy="45.2585" rx="0.797944" ry="0.80918" fill="#5B8FF9"></ellipse><path d="M63.2554 46.2006C63.7713 46.2006 64.1863 45.777 64.1863 45.2585C64.1863 44.7399 63.7713 44.3163 63.2554 44.3163C62.7395 44.3163 62.3245 44.7399 62.3245 45.2585C62.3245 45.777 62.7395 46.2006 63.2554 46.2006Z" stroke="#141414" stroke-opacity="0.85" stroke-width="0.265981"></path><ellipse cx="79.7447" cy="37.708" rx="0.797944" ry="0.80918" fill="#5B8FF9"></ellipse><path d="M79.7447 38.6502C80.2606 38.6502 80.6757 38.2266 80.6757 37.708C80.6757 37.1894 80.2606 36.7658 79.7447 36.7658C79.2288 36.7658 78.8138 37.1894 78.8138 37.708C78.8138 38.2266 79.2288 38.6502 79.7447 38.6502Z" stroke="#141414" stroke-opacity="0.85" stroke-width="0.265981"></path><ellipse cx="95.9682" cy="36.3597" rx="0.797944" ry="0.80918" fill="#5B8FF9"></ellipse><path d="M95.9682 37.3018C96.4841 37.3018 96.8991 36.8782 96.8991 36.3597C96.8991 35.8411 96.4841 35.4175 95.9682 35.4175C95.4523 35.4175 95.0372 35.8411 95.0372 36.3597C95.0372 36.8782 95.4523 37.3018 95.9682 37.3018Z" stroke="#141414" stroke-opacity="0.85" stroke-width="0.265981"></path><ellipse cx="112.457" cy="34.7417" rx="0.797944" ry="0.80918" fill="#5B8FF9"></ellipse><path d="M112.457 35.6838C112.973 35.6838 113.388 35.2603 113.388 34.7417C113.388 34.2231 112.973 33.7995 112.457 33.7995C111.942 33.7995 111.527 34.2231 111.527 34.7417C111.527 35.2603 111.942 35.6838 112.457 35.6838Z" stroke="#141414" stroke-opacity="0.85" stroke-width="0.265981"></path><ellipse cx="128.947" cy="9.93278" rx="0.797944" ry="0.80918" fill="#5B8FF9"></ellipse><path d="M128.947 10.8749C129.463 10.8749 129.878 10.4514 129.878 9.93278C129.878 9.41419 129.463 8.99061 128.947 8.99061C128.431 8.99061 128.016 9.41419 128.016 9.93278C128.016 10.4514 128.431 10.8749 128.947 10.8749Z" stroke="#141414" stroke-opacity="0.85" stroke-width="0.265981"></path></svg>